<svg width="300" height="44" viewBox="0 0 300 44" fill="none" xmlns="http://www.w3.org/2000/svg">
<g clip-path="url(#clip0_4468_62928)">
<path d="M159.937 31.8995H167.919C168.592 31.8995 169.127 31.7014 169.513 31.3152C169.949 30.8794 170.167 30.2258 170.167 29.3741V14.3906H166.74V19.471H161.056V14.3906H157.6V29.3741C157.6 30.2654 157.817 30.9289 158.253 31.3548C158.639 31.7212 159.204 31.8995 159.937 31.8995ZM161.046 28.6611V22.6895H166.73V28.6611H161.046Z" fill="white"/>
<path d="M177.464 14.3906H173.988V36.8312H177.464V25.4228H180.356V22.1547H177.464V14.3906Z" fill="white"/>
<path d="M202.906 14.3906H199.43V37.0293H202.906V14.3906Z" fill="white"/>
<path d="M188.904 29.9188C191.133 29.9188 192.925 29.0969 194.242 27.4826C195.411 26.0566 196.005 24.2839 196.005 22.2042C196.005 20.1246 195.411 18.2727 194.242 16.8268C192.925 15.2126 191.133 14.3906 188.904 14.3906C186.676 14.3906 184.874 15.2126 183.596 16.8268C182.448 18.2727 181.863 20.0751 181.863 22.2042C181.863 24.3334 182.448 26.0566 183.596 27.4727C184.874 29.0869 186.666 29.9089 188.904 29.9089V29.9188ZM186.31 19.055C186.973 18.1043 187.825 17.6389 188.904 17.6389C189.984 17.6389 190.865 18.1043 191.549 19.055C192.163 19.9265 192.47 20.9861 192.47 22.2042C192.47 23.4223 192.163 24.4424 191.549 25.2742C190.885 26.215 190.024 26.6706 188.904 26.6706C187.785 26.6706 186.963 26.215 186.31 25.2841C185.716 24.4325 185.409 23.3926 185.409 22.2042C185.409 21.0159 185.716 19.9364 186.31 19.055Z" fill="white"/>
<path d="M217.811 27.2258C219.326 26.8594 220.614 26.1266 221.653 25.0273C222.842 23.7498 223.456 22.2247 223.456 20.4817C223.456 18.4219 222.673 16.6888 221.119 15.3519C219.683 14.1239 217.979 13.5 216.068 13.5C214.157 13.5 212.444 14.1239 211.017 15.3519C209.482 16.6987 208.71 18.4219 208.71 20.4817C208.71 22.2148 209.294 23.7498 210.463 25.0273C211.493 26.1266 212.79 26.8693 214.325 27.2258V32.3557H205.402V35.6435H226.744V32.3557H217.821V27.2258H217.811ZM213.473 17.8673C214.206 17.2038 215.058 16.8869 216.068 16.8869C217.078 16.8869 217.91 17.2038 218.663 17.8673C219.445 18.5704 219.831 19.4221 219.831 20.4817C219.831 21.5414 219.445 22.3633 218.653 23.0665C217.9 23.7399 217.058 24.0667 216.058 24.0667C215.058 24.0667 214.206 23.7399 213.473 23.0665C212.701 22.3633 212.325 21.5216 212.325 20.4817C212.325 19.4419 212.701 18.5704 213.473 17.8673Z" fill="white"/>
<path d="M238.431 25.2445C237.54 23.0361 237.084 19.4908 237.084 14.6976V14.3906H233.509V14.6976C233.509 19.4809 233.044 23.0262 232.113 25.2346C231.301 27.1459 230.093 28.2353 228.439 28.5621L228.191 28.6116V32.2857L228.538 32.2263C229.944 32.0183 231.261 31.4142 232.44 30.4338C233.618 29.4534 234.569 28.1759 235.252 26.6211C235.916 28.2155 236.797 29.493 237.877 30.4338C239.025 31.434 240.402 32.0381 241.957 32.2362L242.303 32.2758V28.5819L242.056 28.5423C240.402 28.2551 239.214 27.1657 238.431 25.2445Z" fill="white"/>
<path d="M248.521 14.3906H245.045V37.0293H248.521V14.3906Z" fill="white"/>
<path d="M257.425 24.5091C259.148 23.5882 260.485 22.3404 261.396 20.8153C262.288 22.3205 263.605 23.5584 265.318 24.4794C266.932 25.3707 268.744 25.9154 270.705 26.0937L271.042 26.1234V22.578L270.765 22.5483C268.477 22.3007 266.675 21.5481 265.407 20.3399C264.001 18.9832 263.298 17.0521 263.298 14.5961V14.2891H259.505V14.5961C259.505 17.0223 258.792 18.9436 257.366 20.3102C256.078 21.5481 254.266 22.3106 251.978 22.578L251.711 22.6077V26.1333L252.048 26.1036C254.008 25.9154 255.821 25.3806 257.435 24.519L257.425 24.5091Z" fill="white"/>
<path d="M272.06 32.3438H250.719V35.6316H272.06V32.3438Z" fill="white"/>
<path d="M127.89 20.1561H123.285V23.4241H127.89V36.8331H131.366V14.4023H127.89V20.1561Z" fill="white"/>
<path d="M118.106 26.5932C118.839 28.2074 119.799 29.5146 120.968 30.4752C122.137 31.4358 123.424 32.03 124.82 32.2479L125.177 32.2974V28.9798L124.929 28.9303C123.345 28.4352 121.166 27.0982 120.314 22.2358C119.978 20.374 119.849 17.7397 119.859 14.7093V14.4023H116.353V14.7093C116.353 17.7397 116.234 20.3641 115.898 22.2358C115.046 27.1081 112.867 28.4352 111.283 28.9303L111.035 28.9798V32.2974L111.392 32.2479C112.778 32.03 114.075 31.4358 115.244 30.4752C116.413 29.5146 117.373 28.2074 118.106 26.5932Z" fill="white"/>
<path d="M151.074 21.0765C151.351 20.4427 151.49 19.7594 151.49 19.0463C151.49 17.135 150.797 15.5802 149.43 14.4116C148.182 13.3124 146.647 12.7578 144.865 12.7578C143.082 12.7578 141.488 13.3124 140.23 14.4116C138.893 15.5901 138.22 17.1449 138.22 19.0562C138.22 19.7495 138.349 20.4229 138.616 21.0765C138.774 21.4825 138.992 21.8687 139.26 22.2352H134.209V24.9486H142.983V26.2856H134.942V29.0287H151.341V30.0884H134.942V34.4953C134.942 35.2479 135.12 35.8124 135.467 36.1788C135.784 36.5155 136.289 36.6839 136.962 36.6839H154.818V33.8615H138.418V32.782H154.818V26.2955H146.806V24.9585H155.55V22.2451H150.401C150.668 21.8786 150.906 21.5023 151.084 21.0963L151.074 21.0765ZM142.547 16.7884C143.161 16.1843 143.924 15.8971 144.855 15.8971C145.786 15.8971 146.529 16.1942 147.143 16.7884C147.757 17.3925 148.054 18.1253 148.054 19.0463C148.054 19.8584 147.757 20.5516 147.143 21.1557C146.509 21.7895 145.766 22.0965 144.855 22.0965C143.944 22.0965 143.161 21.7895 142.547 21.1557C141.943 20.5615 141.656 19.8683 141.656 19.0463C141.656 18.1253 141.943 17.3826 142.547 16.7884Z" fill="white"/>
<path d="M33.5596 22.4414C32.4207 22.4414 30.8164 23.2238 30.8164 26.3631C30.8164 29.5024 32.4207 30.2847 33.5596 30.2847C34.6985 30.2847 36.3028 29.5024 36.3028 26.3631C36.3028 23.2238 34.6985 22.4414 33.5596 22.4414Z" fill="#2EA647"/>
<path d="M50.6647 5.25C35.0969 5.25 21.1631 7.83473 11.864 11.9148C19.0636 10.0035 28.6499 8.49824 38.3253 8.49824C61.7661 8.49824 77.9479 15.2621 77.9479 24.1849C77.9479 30.7606 68.3221 37.8216 54.4279 37.8216C63.014 35.2368 68.6588 31.7113 68.6588 27.2351C68.6588 18.8273 51.7936 12.9052 31.2743 12.9052C16.5581 12.9052 1.2478 15.688 0 23.9175C0 34.2267 22.6882 42.585 50.6647 42.585C78.6412 42.585 101.329 34.2267 101.329 23.9175C101.329 13.6083 78.6511 5.25 50.6647 5.25ZM15.2014 32.2758C11.5075 32.2758 10.8737 29.9089 10.8737 28.5225L12.8147 28.0966C12.884 29.1068 13.191 30.3348 15.0429 30.3348C16.0432 30.3348 17.1523 29.9683 17.1523 28.879C17.1523 27.9976 16.4294 27.4826 14.3893 26.9479C12.5077 26.4527 10.9727 25.7199 10.9727 23.5016C10.9727 22.2538 12.0423 20.4514 14.9142 20.4514C17.5484 20.4514 18.5982 22.2042 18.816 23.2738L17.0632 23.9571C16.9047 23.462 16.4591 22.3231 14.8251 22.3231C14.0229 22.3231 13.1415 22.6895 13.1217 23.4917C13.1019 24.3829 13.7654 24.7692 15.6668 25.2544C17.7069 25.7793 19.2419 26.631 19.2419 28.6512C19.2419 31.8698 16.0927 32.2659 15.2014 32.2659V32.2758ZM28.0854 31.9787H20.2223V20.7485H27.8477V22.6202H22.3713V25.1554H27.412V27.0271H22.3713V30.1169H28.0854V31.9886V31.9787ZM33.5619 32.2758C32.225 32.2758 28.7093 31.6321 28.7093 26.3636C28.7093 21.0951 32.225 20.4514 33.5619 20.4514C34.8988 20.4514 38.4144 21.0951 38.4144 26.3636C38.4144 31.6321 34.8988 32.2758 33.5619 32.2758ZM47.9314 28.5027C47.9314 30.6418 46.3271 32.256 43.6532 32.256C40.9794 32.256 39.3751 30.6418 39.3751 28.5027V20.7485H41.524V28.166C41.524 29.3444 42.4748 30.305 43.6532 30.305C44.8317 30.305 45.7824 29.3444 45.7824 28.166V20.7485H47.9314V28.5027ZM49.0208 31.9787V20.7485H51.1796V30.0575H56.7948V31.9688H49.0208V31.9787Z" fill="#2EA647"/>
</g>
<defs>
<clipPath id="clip0_4468_62928">
<rect width="272.06" height="37.335" fill="white" transform="translate(0 5.25)"/>
</clipPath>
</defs>
</svg>
