<svg width="200" height="40" viewBox="0 0 200 40" fill="none" xmlns="http://www.w3.org/2000/svg">
<g clip-path="url(#clip0_1110_647)">
<path d="M106.624 25.2663H111.946C112.395 25.2663 112.751 25.1343 113.009 24.8768C113.299 24.5863 113.444 24.1505 113.444 23.5828V13.5938H111.16V16.9806H107.37V13.5938H105.066V23.5828C105.066 24.177 105.211 24.6193 105.502 24.9032C105.759 25.1475 106.136 25.2663 106.624 25.2663ZM107.364 23.1074V19.1263H111.153V23.1074H107.364Z" fill="white"/>
<path d="M118.31 13.5938H115.993V28.5542H118.31V20.9485H120.238V18.7698H118.31V13.5938Z" fill="white"/>
<path d="M135.271 13.5938H132.953V28.6862H135.271V13.5938Z" fill="white"/>
<path d="M125.935 23.9459C127.421 23.9459 128.616 23.3979 129.494 22.3218C130.273 21.3711 130.669 20.1893 130.669 18.8028C130.669 17.4164 130.273 16.1818 129.494 15.2179C128.616 14.1417 127.421 13.5938 125.935 13.5938C124.45 13.5938 123.248 14.1417 122.397 15.2179C121.631 16.1818 121.241 17.3834 121.241 18.8028C121.241 20.2223 121.631 21.371 122.397 22.3152C123.248 23.3913 124.443 23.9393 125.935 23.9393V23.9459ZM124.206 16.7033C124.648 16.0695 125.216 15.7592 125.935 15.7592C126.655 15.7592 127.243 16.0695 127.698 16.7033C128.108 17.2843 128.312 17.9908 128.312 18.8028C128.312 19.6149 128.108 20.2949 127.698 20.8495C127.256 21.4767 126.681 21.7804 125.935 21.7804C125.189 21.7804 124.641 21.4767 124.206 20.8561C123.81 20.2883 123.605 19.5951 123.605 18.8028C123.605 18.0106 123.81 17.2909 124.206 16.7033Z" fill="white"/>
<path d="M145.207 22.1501C146.217 21.9058 147.075 21.4172 147.769 20.6844C148.561 19.8327 148.97 18.816 148.97 17.654C148.97 16.2808 148.449 15.1254 147.412 14.2341C146.455 13.4154 145.319 12.9995 144.045 12.9995C142.771 12.9995 141.629 13.4154 140.678 14.2341C139.655 15.132 139.14 16.2808 139.14 17.654C139.14 18.8094 139.529 19.8327 140.308 20.6844C140.995 21.4172 141.86 21.9124 142.883 22.1501V25.57H136.935V27.7619H151.162V25.57H145.214V22.1501H145.207ZM142.315 15.911C142.804 15.4687 143.372 15.2574 144.045 15.2574C144.718 15.2574 145.273 15.4687 145.775 15.911C146.296 16.3798 146.554 16.9476 146.554 17.654C146.554 18.3604 146.296 18.9084 145.768 19.3772C145.266 19.8261 144.705 20.044 144.038 20.044C143.372 20.044 142.804 19.8261 142.315 19.3772C141.8 18.9084 141.549 18.3472 141.549 17.654C141.549 16.9608 141.8 16.3798 142.315 15.911Z" fill="white"/>
<path d="M158.953 20.8297C158.358 19.3574 158.055 16.9938 158.055 13.7984V13.5938H155.671V13.7984C155.671 16.9872 155.361 19.3508 154.741 20.8231C154.199 22.0973 153.394 22.8235 152.291 23.0414L152.126 23.0744V25.5238L152.357 25.4842C153.295 25.3455 154.173 24.9428 154.958 24.2892C155.744 23.6356 156.378 22.7839 156.833 21.7474C157.276 22.8103 157.863 23.662 158.583 24.2892C159.349 24.956 160.267 25.3587 161.303 25.4908L161.534 25.5172V23.0546L161.369 23.0282C160.267 22.8367 159.474 22.1105 158.953 20.8297Z" fill="white"/>
<path d="M165.68 13.5938H163.363V28.6862H165.68V13.5938Z" fill="white"/>
<path d="M171.616 20.3412C172.764 19.7272 173.656 18.8954 174.263 17.8786C174.857 18.8822 175.735 19.7074 176.877 20.3214C177.954 20.9156 179.162 21.2787 180.469 21.3976L180.693 21.4174V19.0538L180.509 19.034C178.984 18.8689 177.782 18.3672 176.937 17.5617C175.999 16.6572 175.531 15.3698 175.531 13.7325V13.5278H173.002V13.7325C173.002 15.35 172.527 16.6308 171.576 17.5419C170.718 18.3672 169.51 18.8756 167.984 19.0538L167.806 19.0736V21.424L168.031 21.4042C169.338 21.2787 170.546 20.9222 171.622 20.3478L171.616 20.3412Z" fill="white"/>
<path d="M181.373 25.5635H167.146V27.7554H181.373V25.5635Z" fill="white"/>
<path d="M85.2598 17.4364H82.1898V19.6151H85.2598V28.5544H87.5771V13.6006H85.2598V17.4364Z" fill="white"/>
<path d="M78.7369 21.7278C79.2254 22.8039 79.8658 23.6754 80.6449 24.3158C81.4239 24.9562 82.2822 25.3524 83.2131 25.4976L83.4508 25.5306V23.3189L83.2857 23.2859C82.2294 22.9558 80.7769 22.0645 80.2091 18.8229C79.9847 17.5817 79.8988 15.8255 79.9054 13.8053V13.6006H77.5683V13.8053C77.5683 15.8255 77.4891 17.5751 77.2646 18.8229C76.6968 22.0711 75.2443 22.9558 74.188 23.2859L74.0229 23.3189V25.5306L74.2606 25.4976C75.1849 25.3524 76.0498 24.9562 76.8289 24.3158C77.6079 23.6754 78.2483 22.8039 78.7369 21.7278Z" fill="white"/>
<path d="M100.715 18.0502C100.9 17.6276 100.993 17.1721 100.993 16.6967C100.993 15.4225 100.53 14.386 99.6194 13.6069C98.7875 12.8741 97.7642 12.5044 96.5758 12.5044C95.3874 12.5044 94.3245 12.8741 93.486 13.6069C92.5947 14.3926 92.1458 15.4291 92.1458 16.7033C92.1458 17.1655 92.2316 17.6144 92.4099 18.0502C92.5155 18.3209 92.6607 18.5783 92.839 18.8226H89.4719V20.6316H95.3214V21.5229H89.9605V23.3517H100.894V24.0581H89.9605V26.9961C89.9605 27.4978 90.0793 27.8741 90.3104 28.1184C90.5217 28.3429 90.8584 28.4551 91.3073 28.4551H103.211V26.5735H92.2778V25.8539H103.211V21.5295H97.8698V20.6382H103.699V18.8292H100.266C100.445 18.5849 100.603 18.3341 100.722 18.0634L100.715 18.0502ZM95.0309 15.1915C95.4402 14.7887 95.9486 14.5973 96.5692 14.5973C97.1898 14.5973 97.685 14.7953 98.0943 15.1915C98.5036 15.5942 98.7017 16.0827 98.7017 16.6967C98.7017 17.2381 98.5036 17.7003 98.0943 18.103C97.6718 18.5255 97.1766 18.7302 96.5692 18.7302C95.9618 18.7302 95.4402 18.5255 95.0309 18.103C94.6282 17.7069 94.4367 17.2447 94.4367 16.6967C94.4367 16.0827 94.6282 15.5876 95.0309 15.1915Z" fill="white"/>
<path d="M22.3746 18.9614C21.6153 18.9614 20.5458 19.483 20.5458 21.5759C20.5458 23.6687 21.6153 24.1903 22.3746 24.1903C23.1338 24.1903 24.2034 23.6687 24.2034 21.5759C24.2034 19.483 23.1338 18.9614 22.3746 18.9614Z" fill="#2EA647"/>
<path d="M33.7765 7.5C23.3979 7.5 14.1087 9.22315 7.90934 11.9432C12.7091 10.669 19.0999 9.6655 25.5502 9.6655C41.1774 9.6655 51.9653 14.1747 51.9653 20.1233C51.9653 24.5071 45.548 29.2144 36.2853 29.2144C42.0093 27.4912 45.7725 25.1409 45.7725 22.1567C45.7725 16.5515 34.5291 12.6034 20.8495 12.6034C11.0387 12.6034 0.831867 14.4586 0 19.945C0 26.8178 15.1255 32.39 33.7765 32.39C52.4274 32.39 67.5529 26.8178 67.5529 19.945C67.5529 13.0722 52.434 7.5 33.7765 7.5ZM10.1343 25.5172C7.67167 25.5172 7.24913 23.9393 7.24913 23.015L8.54315 22.7311C8.58936 23.4045 8.79403 24.2232 10.0286 24.2232C10.6954 24.2232 11.4349 23.9789 11.4349 23.2527C11.4349 22.6651 10.9529 22.3218 9.59288 21.9652C8.33848 21.6351 7.31515 21.1466 7.31515 19.6677C7.31515 18.8358 8.02818 17.6343 9.9428 17.6343C11.699 17.6343 12.3988 18.8028 12.544 19.5159L11.3755 19.9714C11.2698 19.6413 10.9727 18.8821 9.88338 18.8821C9.3486 18.8821 8.76102 19.1263 8.74781 19.6611C8.73461 20.2553 9.17695 20.5128 10.4446 20.8363C11.8046 21.1862 12.8279 21.754 12.8279 23.1008C12.8279 25.2465 10.7284 25.5106 10.1343 25.5106V25.5172ZM18.7236 25.3191H13.4815V17.8323H18.5652V19.0801H14.9142V20.7703H18.2747V22.0181H14.9142V24.0779H18.7236V25.3257V25.3191ZM22.3746 25.5172C21.4833 25.5172 19.1396 25.0881 19.1396 21.5757C19.1396 18.0634 21.4833 17.6343 22.3746 17.6343C23.2659 17.6343 25.6096 18.0634 25.6096 21.5757C25.6096 25.0881 23.2659 25.5172 22.3746 25.5172ZM31.9543 23.0018C31.9543 24.4278 30.8847 25.504 29.1022 25.504C27.3196 25.504 26.25 24.4278 26.25 23.0018V17.8323H27.6827V22.7773C27.6827 23.563 28.3165 24.2034 29.1022 24.2034C29.8878 24.2034 30.5216 23.563 30.5216 22.7773V17.8323H31.9543V23.0018ZM32.6805 25.3191V17.8323H34.1198V24.0383H37.8632V25.3125H32.6805V25.3191Z" fill="#2EA647"/>
</g>
<defs>
<clipPath id="clip0_1110_647">
<rect width="181.373" height="24.89" fill="white" transform="translate(0 7.5)"/>
</clipPath>
</defs>
</svg>
