<svg width="20" height="20" viewBox="0 0 20 20" fill="none" xmlns="http://www.w3.org/2000/svg">
<path d="M14.6592 15.3073L13.5697 12.6409C13.2239 11.7972 12.4968 12.4471 11.9406 12.5221C11.1657 12.6263 10.4553 10.7869 10.2241 10.2182C10.2241 10.214 10.222 10.2098 10.2199 10.2057C10.2199 10.2015 10.2179 10.1973 10.2158 10.1932C10.1762 10.0953 10.12 9.96194 10.0575 9.80362C9.7554 9.04327 9.30961 7.73504 9.82831 7.34758C10.2783 7.01219 11.2532 6.96428 10.9095 6.1206L9.81998 3.45207C9.66791 3.08127 9.24086 2.90212 8.87006 3.05419C8.25136 3.30625 7.53892 3.49998 6.99314 3.8937C5.94531 4.64572 5.94322 6.10185 6.03905 7.24759C6.15987 8.68705 6.59734 10.1182 7.14104 11.4514C7.14104 11.4556 7.14312 11.4576 7.14521 11.4639C7.14729 11.4681 7.14937 11.4722 7.14937 11.4764C7.34727 11.9555 7.56184 12.4367 7.79932 12.9054C8.2222 13.7387 8.71591 14.5386 9.30544 15.2511C10.0387 16.1343 11.0615 17.1718 12.3323 16.9759C12.9968 16.8718 13.6405 16.5135 14.2592 16.2614C14.63 16.1093 14.8091 15.6823 14.6571 15.3094L14.6592 15.3073Z" fill="white"/>
</svg>
