<svg width="14" height="14" viewBox="0 0 14 14" fill="none" xmlns="http://www.w3.org/2000/svg">
<path fill-rule="evenodd" clip-rule="evenodd" d="M12.4696 2.29886C13.0715 2.46272 13.5457 2.9473 13.707 3.56158C13.9992 4.67597 13.9992 7.00027 13.9992 7.00027C13.9992 7.00027 13.9992 9.32456 13.707 10.439C13.5464 11.0532 13.0715 11.537 12.4696 11.7017C11.3775 11.9999 7 11.9999 7 11.9999C7 11.9999 2.62253 11.9999 1.53044 11.7017C0.927702 11.5378 0.453577 11.054 0.292237 10.439C0 9.32456 0 7.00027 0 7.00027C0 7.00027 0 4.67519 0.292237 3.56158C0.453577 2.94653 0.927702 2.46272 1.53044 2.29886C2.62177 1.99988 7 1.99988 7 1.99988C7 1.99988 11.3775 1.99988 12.4696 2.29886ZM9.23736 7.18258L5.59961 9.32516V5.03923L9.23736 7.18258Z" fill="white"/>
</svg>
