<svg width="18" height="18" viewBox="0 0 18 18" fill="none" xmlns="http://www.w3.org/2000/svg">
<path d="M8.99996 1C4.58166 1 1 4.58168 1 9C1 13.4183 4.58166 17 8.99996 17C13.4183 17 17 13.4183 17 9C17 4.58168 13.4182 1 8.99996 1ZM6.86557 12.8676H5.1091V7.19291H6.86557V12.8676ZM5.97894 6.4498C5.40532 6.4498 4.94023 5.98098 4.94023 5.40269C4.94023 4.82441 5.40532 4.35559 5.97894 4.35559C6.55256 4.35559 7.01756 4.82441 7.01756 5.40269C7.01756 5.98098 6.55256 6.4498 5.97894 6.4498ZM13.448 12.8676H11.7V9.88889C11.7 9.07192 11.3897 8.61585 10.7436 8.61585C10.0405 8.61585 9.67325 9.09081 9.67325 9.88889V12.8676H7.98863V7.19291H9.67325V7.95717C9.67325 7.95717 10.18 7.01977 11.3833 7.01977C12.5866 7.01977 13.448 7.75448 13.448 9.27445V12.8676V12.8676Z" fill="white"/>
</svg>
